<svg width="88" height="36" viewBox="0 0 88 36" fill="none" xmlns="http://www.w3.org/2000/svg">
<path d="M0.048 24.229C0.592 23.797 0.84 23.597 0.792 23.629C2.36 22.333 3.592 21.269 4.488 20.437C5.4 19.605 6.168 18.733 6.792 17.821C7.416 16.909 7.728 16.021 7.728 15.157C7.728 14.501 7.576 13.989 7.272 13.621C6.968 13.253 6.512 13.069 5.904 13.069C5.296 13.069 4.816 13.301 4.464 13.765C4.128 14.213 3.96 14.853 3.96 15.685H0C0.032 14.325 0.32 13.189 0.864 12.277C1.424 11.365 2.152 10.693 3.048 10.261C3.96 9.82897 4.968 9.61297 6.072 9.61297C7.976 9.61297 9.408 10.101 10.368 11.077C11.344 12.053 11.832 13.325 11.832 14.893C11.832 16.605 11.248 18.197 10.08 19.669C8.912 21.125 7.424 22.549 5.616 23.941H12.096V27.277H0.048V24.229Z" fill="white"/>
<path d="M18.4149 16.357C18.8949 15.621 19.4949 15.045 20.2149 14.629C20.9349 14.197 21.7349 13.981 22.6149 13.981V18.325H21.4869C20.4629 18.325 19.6949 18.549 19.1829 18.997C18.6709 19.429 18.4149 20.197 18.4149 21.301V27.517H14.3109V14.125H18.4149V16.357Z" fill="white"/>
<path d="M26.6406 12.733C25.9206 12.733 25.3286 12.525 24.8646 12.109C24.4166 11.677 24.1926 11.149 24.1926 10.525C24.1926 9.88497 24.4166 9.35697 24.8646 8.94097C25.3286 8.50897 25.9206 8.29297 26.6406 8.29297C27.3446 8.29297 27.9206 8.50897 28.3686 8.94097C28.8326 9.35697 29.0646 9.88497 29.0646 10.525C29.0646 11.149 28.8326 11.677 28.3686 12.109C27.9206 12.525 27.3446 12.733 26.6406 12.733ZM28.6806 14.125V27.517H24.5766V14.125H28.6806Z" fill="white"/>
<path d="M37.1027 27.709C35.9347 27.709 34.8947 27.509 33.9827 27.109C33.0707 26.709 32.3507 26.165 31.8227 25.477C31.2947 24.773 30.9987 23.989 30.9347 23.125H34.9907C35.0387 23.589 35.2547 23.965 35.6387 24.253C36.0227 24.541 36.4947 24.685 37.0547 24.685C37.5667 24.685 37.9587 24.589 38.2307 24.397C38.5187 24.189 38.6627 23.925 38.6627 23.605C38.6627 23.221 38.4627 22.941 38.0627 22.765C37.6627 22.573 37.0147 22.365 36.1187 22.141C35.1587 21.917 34.3587 21.685 33.7187 21.445C33.0787 21.189 32.5267 20.797 32.0627 20.269C31.5987 19.725 31.3667 18.997 31.3667 18.085C31.3667 17.317 31.5747 16.621 31.9907 15.997C32.4227 15.357 33.0467 14.853 33.8627 14.485C34.6947 14.117 35.6787 13.933 36.8147 13.933C38.4947 13.933 39.8147 14.349 40.7747 15.181C41.7507 16.013 42.3107 17.117 42.4547 18.493H38.6627C38.5987 18.029 38.3907 17.661 38.0387 17.389C37.7027 17.117 37.2547 16.981 36.6947 16.981C36.2147 16.981 35.8467 17.077 35.5907 17.269C35.3347 17.445 35.2067 17.693 35.2067 18.013C35.2067 18.397 35.4067 18.685 35.8067 18.877C36.2227 19.069 36.8627 19.261 37.7267 19.453C38.7187 19.709 39.5267 19.965 40.1507 20.221C40.7747 20.461 41.3187 20.861 41.7827 21.421C42.2627 21.965 42.5107 22.701 42.5267 23.629C42.5267 24.413 42.3027 25.117 41.8547 25.741C41.4227 26.349 40.7907 26.829 39.9587 27.181C39.1427 27.533 38.1907 27.709 37.1027 27.709Z" fill="white"/>
<path d="M62.1255 13.981C63.7895 13.981 65.1095 14.485 66.0855 15.493C67.0775 16.501 67.5735 17.901 67.5735 19.693V27.517H63.4935V20.245C63.4935 19.381 63.2615 18.717 62.7975 18.253C62.3495 17.773 61.7255 17.533 60.9255 17.533C60.1255 17.533 59.4935 17.773 59.0295 18.253C58.5815 18.717 58.3575 19.381 58.3575 20.245V27.517H54.2775V20.245C54.2775 19.381 54.0455 18.717 53.5815 18.253C53.1335 17.773 52.5095 17.533 51.7095 17.533C50.9095 17.533 50.2775 17.773 49.8135 18.253C49.3655 18.717 49.1415 19.381 49.1415 20.245V27.517H45.0375V14.125H49.1415V15.805C49.5575 15.245 50.1015 14.805 50.7735 14.485C51.4455 14.149 52.2055 13.981 53.0535 13.981C54.0615 13.981 54.9575 14.197 55.7415 14.629C56.5415 15.061 57.1655 15.677 57.6135 16.477C58.0775 15.741 58.7095 15.141 59.5095 14.677C60.3095 14.213 61.1815 13.981 62.1255 13.981Z" fill="white"/>
<g clip-path="url(#clip0_525_884)">
<path d="M72.8708 6.50267C72.5228 6.38667 72.5195 6.19934 72.8775 6.08L85.6021 1.83867C85.9548 1.72134 86.1568 1.91867 86.0581 2.264L82.4221 14.988C82.3221 15.3407 82.1188 15.3527 81.9695 15.018L79.5735 9.626L83.5735 4.29267L78.2401 8.29267L72.8708 6.50267Z" fill="#7B61FF"/>
</g>
<defs>
<clipPath id="clip0_525_884">
<rect width="16" height="16" fill="white" transform="translate(71.5732 0.292969)"/>
</clipPath>
</defs>
</svg>
