<svg width="25" height="24" viewBox="0 0 25 24" fill="none" xmlns="http://www.w3.org/2000/svg">
<g clip-path="url(#clip0_540_1005)">
<path d="M2.33301 22C2.33301 19.8783 3.17586 17.8434 4.67615 16.3431C6.17644 14.8429 8.21128 14 10.333 14C12.4547 14 14.4896 14.8429 15.9899 16.3431C17.4902 17.8434 18.333 19.8783 18.333 22H16.333C16.333 20.4087 15.7009 18.8826 14.5756 17.7574C13.4504 16.6321 11.9243 16 10.333 16C8.74171 16 7.21559 16.6321 6.09037 17.7574C4.96515 18.8826 4.33301 20.4087 4.33301 22H2.33301ZM10.333 13C7.01801 13 4.33301 10.315 4.33301 7C4.33301 3.685 7.01801 1 10.333 1C13.648 1 16.333 3.685 16.333 7C16.333 10.315 13.648 13 10.333 13ZM10.333 11C12.543 11 14.333 9.21 14.333 7C14.333 4.79 12.543 3 10.333 3C8.12301 3 6.33301 4.79 6.33301 7C6.33301 9.21 8.12301 11 10.333 11ZM18.617 14.703C20.0223 15.3359 21.215 16.3612 22.0516 17.6557C22.8882 18.9502 23.3332 20.4587 23.333 22H21.333C21.3332 20.844 20.9996 19.7125 20.3721 18.7416C19.7446 17.7707 18.8501 17.0017 17.796 16.527L18.616 14.703H18.617ZM17.929 3.413C18.9365 3.8283 19.798 4.53354 20.404 5.43923C21.0101 6.34492 21.3334 7.41024 21.333 8.5C21.3334 9.87233 20.8207 11.1952 19.8955 12.2088C18.9704 13.2224 17.6997 13.8535 16.333 13.978V11.965C17.074 11.8589 17.7614 11.518 18.2943 10.9925C18.8273 10.4669 19.1777 9.78432 19.2942 9.04493C19.4106 8.30555 19.287 7.5483 18.9414 6.88435C18.5958 6.22041 18.0465 5.68475 17.374 5.356L17.929 3.413Z" fill="#FFA800"/>
</g>
<defs>
<clipPath id="clip0_540_1005">
<rect width="24" height="24" fill="white" transform="translate(0.333008)"/>
</clipPath>
</defs>
</svg>
