<svg width="25" height="24" viewBox="0 0 25 24" fill="none" xmlns="http://www.w3.org/2000/svg">
<path d="M17.667 3H21.667C21.9322 3 22.1866 3.10536 22.3741 3.29289C22.5616 3.48043 22.667 3.73478 22.667 4V20C22.667 20.2652 22.5616 20.5196 22.3741 20.7071C22.1866 20.8946 21.9322 21 21.667 21H3.66699C3.40178 21 3.14742 20.8946 2.95989 20.7071C2.77235 20.5196 2.66699 20.2652 2.66699 20V4C2.66699 3.73478 2.77235 3.48043 2.95989 3.29289C3.14742 3.10536 3.40178 3 3.66699 3H7.66699V1H9.66699V3H15.667V1H17.667V3ZM4.66699 9V19H20.667V9H4.66699ZM6.66699 13H11.667V17H6.66699V13Z" fill="#FFA800"/>
</svg>
